<?xml version="1.0" encoding="iso-8859-1"?>
<!-- Uploaded to: SVG Repo, www.svgrepo.com, Generator: SVG Repo Mixer Tools -->
<svg fill="#000000" version="1.1" id="Layer_1" xmlns="http://www.w3.org/2000/svg" xmlns:xlink="http://www.w3.org/1999/xlink" 
	 viewBox="0 0 512 512" xml:space="preserve">
<g>
	<g>
		<circle cx="189.722" cy="181.081" r="7.837"/>
	</g>
</g>
<g>
	<g>
		<circle cx="219.972" cy="196.671" r="7.837"/>
	</g>
</g>
<g>
	<g>
		<circle cx="250.232" cy="212.25" r="7.837"/>
	</g>
</g>
<g>
	<g>
		<circle cx="280.482" cy="227.829" r="7.837"/>
	</g>
</g>
<g>
	<g>
		<path d="M503.835,324.41c-1.68-21.346-10.168-41.657-24.36-57.881c-15.919-18.199-37.885-29.993-61.849-33.21l-46.228-6.205
			c-18.62-2.499-36.157-8.788-52.122-18.689l-108.962-67.575c-7.335-5.546-24.466-11.609-39.548,3.474l-0.389,0.389l-16.823,22.342
			l-0.46,0.682c-8.87,14.785-25.094,23.97-42.337,23.97s-33.466-9.185-42.337-23.971l-1.225-2.041
			c-9.709-16.181-27.463-26.233-46.334-26.233c-7.184,0-13.028,5.844-13.028,13.028V324.41H0v52.767h138.449v-10.449h157.496
			l20.898,10.449H512V324.41H503.835z M390.044,245.432l25.499,3.422c38.973,5.231,68.961,37.045,72.58,75.557h-178.31v-3.135
			c0-8.656,3.37-16.787,9.495-22.904c6.109-6.118,14.241-9.488,22.897-9.488C367.151,288.884,387.714,269.778,390.044,245.432z
			 M23.51,155.23c12.393,0.869,23.81,7.802,30.247,18.53l1.225,2.041c11.688,19.479,33.061,31.58,55.778,31.58
			c22.575,0,43.822-11.949,55.557-31.216l15.898-21.113c8.773-8.391,17.211-2.783,18.766-1.608l0.352,0.279l109.684,68.023
			c17.857,11.075,37.47,18.108,58.297,20.903l5.174,0.695c-1.294,16.684-15.273,29.866-32.284,29.866
			c-12.847,0-24.917,5.003-33.98,14.078c-9.083,9.07-14.085,21.14-14.085,33.987v3.135H93.164
			c-0.333-3.557-0.915-7.043-1.712-10.449h154.098v-15.673H85.98c-11.453-24.097-34.856-41.524-62.47-44.475V155.23z M23.51,269.614
			c28.205,3.788,50.565,26.479,53.891,54.796H23.51V269.614z M496.327,361.504H320.544l-20.898-10.449H122.775v10.449H15.673v-21.42
			h480.653V361.504z"/>
	</g>
</g>
<g>
	<g>
		<rect x="261.224" y="298.287" width="15.673" height="15.673"/>
	</g>
</g>
</svg>